<svg width="433" height="126" viewBox="0 0 433 126" fill="none" xmlns="http://www.w3.org/2000/svg">
<rect width="200" height="126" fill="#0B0B0B"/>
<path d="M12.6364 40.4545H19.3636L35.1818 79.0909H35.7273L51.5455 40.4545H58.2727V87H53V51.6364H52.5455L38 87H32.9091L18.3636 51.6364H17.9091V87H12.6364V40.4545ZM69.5739 87V40.4545H97.6648V45.4545H75.2102V61.1818H96.2102V66.1818H75.2102V82H98.0284V87H69.5739ZM107.824 40.4545H114.551L130.369 79.0909H130.915L146.733 40.4545H153.46V87H148.188V51.6364H147.733L133.188 87H128.097L113.551 51.6364H113.097V87H107.824V40.4545Z" fill="white"/>
<path d="M207.045 88V41.4545H225.409C228.939 41.4545 231.947 42.1288 234.432 43.4773C236.917 44.8106 238.811 46.6667 240.114 49.0455C241.432 51.4091 242.091 54.1364 242.091 57.2273C242.091 60.3182 241.424 63.0455 240.091 65.4091C238.758 67.7727 236.826 69.6136 234.295 70.9318C231.78 72.25 228.735 72.9091 225.159 72.9091H213.455V65.0227H223.568C225.462 65.0227 227.023 64.697 228.25 64.0455C229.492 63.3788 230.417 62.4621 231.023 61.2955C231.644 60.1136 231.955 58.7576 231.955 57.2273C231.955 55.6818 231.644 54.3333 231.023 53.1818C230.417 52.0151 229.492 51.1136 228.25 50.4773C227.008 49.8258 225.432 49.5 223.523 49.5H216.886V88H207.045ZM263.648 88.6818C260.057 88.6818 256.966 87.9545 254.375 86.5C251.799 85.0303 249.814 82.9545 248.42 80.2727C247.027 77.5758 246.33 74.3864 246.33 70.7045C246.33 67.1136 247.027 63.9621 248.42 61.25C249.814 58.5379 251.777 56.4242 254.307 54.9091C256.852 53.3939 259.837 52.6364 263.261 52.6364C265.564 52.6364 267.708 53.0076 269.693 53.75C271.693 54.4773 273.436 55.5758 274.92 57.0455C276.42 58.5152 277.587 60.3636 278.42 62.5909C279.254 64.803 279.67 67.3939 279.67 70.3636V73.0227H250.193V67.0227H270.557C270.557 65.6288 270.254 64.3939 269.648 63.3182C269.042 62.2424 268.201 61.4015 267.125 60.7955C266.064 60.1742 264.83 59.8636 263.42 59.8636C261.951 59.8636 260.648 60.2045 259.511 60.8864C258.39 61.553 257.511 62.4545 256.875 63.5909C256.239 64.7121 255.913 65.9621 255.898 67.3409V73.0455C255.898 74.7727 256.216 76.2652 256.852 77.5227C257.504 78.7803 258.42 79.75 259.602 80.4318C260.784 81.1136 262.186 81.4545 263.807 81.4545C264.883 81.4545 265.867 81.303 266.761 81C267.655 80.697 268.42 80.2424 269.057 79.6364C269.693 79.0303 270.178 78.2879 270.511 77.4091L279.466 78C279.011 80.1515 278.08 82.0303 276.67 83.6364C275.277 85.2273 273.473 86.4697 271.261 87.3636C269.064 88.2424 266.527 88.6818 263.648 88.6818ZM285.989 88V53.0909H295.375V59.1818H295.739C296.375 57.0152 297.443 55.3788 298.943 54.2727C300.443 53.1515 302.17 52.5909 304.125 52.5909C304.61 52.5909 305.133 52.6212 305.693 52.6818C306.254 52.7424 306.746 52.8258 307.17 52.9318V61.5227C306.716 61.3864 306.087 61.2652 305.284 61.1591C304.481 61.053 303.746 61 303.08 61C301.655 61 300.383 61.3106 299.261 61.9318C298.155 62.5379 297.277 63.3864 296.625 64.4773C295.989 65.5682 295.67 66.8258 295.67 68.25V88H285.989ZM332.699 53.0909V60.3636H311.153V53.0909H332.699ZM316.085 88V50.5682C316.085 48.0379 316.578 45.9394 317.562 44.2727C318.562 42.6061 319.926 41.3561 321.653 40.5227C323.381 39.6894 325.343 39.2727 327.54 39.2727C329.025 39.2727 330.381 39.3864 331.608 39.6136C332.85 39.8409 333.775 40.0455 334.381 40.2273L332.653 47.5C332.275 47.3788 331.805 47.2651 331.244 47.1591C330.699 47.053 330.138 47 329.562 47C328.138 47 327.146 47.3333 326.585 48C326.025 48.6515 325.744 49.5682 325.744 50.75V88H316.085ZM353.273 88.6818C349.682 88.6818 346.591 87.9545 344 86.5C341.424 85.0303 339.439 82.9545 338.045 80.2727C336.652 77.5758 335.955 74.3864 335.955 70.7045C335.955 67.1136 336.652 63.9621 338.045 61.25C339.439 58.5379 341.402 56.4242 343.932 54.9091C346.477 53.3939 349.462 52.6364 352.886 52.6364C355.189 52.6364 357.333 53.0076 359.318 53.75C361.318 54.4773 363.061 55.5758 364.545 57.0455C366.045 58.5152 367.212 60.3636 368.045 62.5909C368.879 64.803 369.295 67.3939 369.295 70.3636V73.0227H339.818V67.0227H360.182C360.182 65.6288 359.879 64.3939 359.273 63.3182C358.667 62.2424 357.826 61.4015 356.75 60.7955C355.689 60.1742 354.455 59.8636 353.045 59.8636C351.576 59.8636 350.273 60.2045 349.136 60.8864C348.015 61.553 347.136 62.4545 346.5 63.5909C345.864 64.7121 345.538 65.9621 345.523 67.3409V73.0455C345.523 74.7727 345.841 76.2652 346.477 77.5227C347.129 78.7803 348.045 79.75 349.227 80.4318C350.409 81.1136 351.811 81.4545 353.432 81.4545C354.508 81.4545 355.492 81.303 356.386 81C357.28 80.697 358.045 80.2424 358.682 79.6364C359.318 79.0303 359.803 78.2879 360.136 77.4091L369.091 78C368.636 80.1515 367.705 82.0303 366.295 83.6364C364.902 85.2273 363.098 86.4697 360.886 87.3636C358.689 88.2424 356.152 88.6818 353.273 88.6818ZM391.386 88.6818C387.811 88.6818 384.735 87.9242 382.159 86.4091C379.598 84.8788 377.629 82.7576 376.25 80.0455C374.886 77.3333 374.205 74.2121 374.205 70.6818C374.205 67.1061 374.894 63.9697 376.273 61.2727C377.667 58.5606 379.644 56.447 382.205 54.9318C384.765 53.4015 387.811 52.6364 391.341 52.6364C394.386 52.6364 397.053 53.1894 399.341 54.2955C401.629 55.4015 403.439 56.9545 404.773 58.9545C406.106 60.9545 406.841 63.303 406.977 66H397.841C397.583 64.2576 396.902 62.8561 395.795 61.7955C394.705 60.7197 393.273 60.1818 391.5 60.1818C390 60.1818 388.689 60.5909 387.568 61.4091C386.462 62.2121 385.598 63.3864 384.977 64.9318C384.356 66.4773 384.045 68.3485 384.045 70.5455C384.045 72.7727 384.348 74.6667 384.955 76.2273C385.576 77.7879 386.447 78.9773 387.568 79.7955C388.689 80.6136 390 81.0227 391.5 81.0227C392.606 81.0227 393.598 80.7955 394.477 80.3409C395.371 79.8864 396.106 79.2273 396.682 78.3636C397.273 77.4848 397.659 76.4318 397.841 75.2045H406.977C406.826 77.8712 406.098 80.2197 404.795 82.25C403.508 84.2652 401.727 85.8409 399.455 86.9773C397.182 88.1136 394.492 88.6818 391.386 88.6818ZM431.744 53.0909V60.3636H410.722V53.0909H431.744ZM415.494 44.7273H425.176V77.2727C425.176 78.1667 425.313 78.8636 425.585 79.3636C425.858 79.8485 426.237 80.1894 426.722 80.3864C427.222 80.5833 427.797 80.6818 428.449 80.6818C428.903 80.6818 429.358 80.6439 429.812 80.5682C430.267 80.4773 430.616 80.4091 430.858 80.3636L432.381 87.5682C431.896 87.7197 431.214 87.8939 430.335 88.0909C429.456 88.303 428.388 88.4318 427.131 88.4773C424.797 88.5682 422.752 88.2576 420.994 87.5455C419.252 86.8333 417.896 85.7273 416.926 84.2273C415.956 82.7273 415.479 80.8333 415.494 78.5455V44.7273Z" fill="white"/>
<path d="M190.364 87V40.4545H162.273V45.4545H184.727V61.1818H163.727V66.1818H184.727V82H161.909V87H190.364Z" fill="white"/>
</svg>
